<svg xmlns="http://www.w3.org/2000/svg" width="1200" height="240" viewBox="0 0 1200 240" role="img" aria-labelledby="title desc">
<title id="title">01 — EdgeDispatch. Intelligence. With a sense of locality.</title><desc id="desc">Original geometric artwork in slate blue, cyan, violet and acid yellow.</desc>
<defs>
 <linearGradient id="bg" x2="1" y2="1"><stop stop-color="#2b405e"/><stop offset="1" stop-color="#203149"/></linearGradient>
 <linearGradient id="neon"><stop stop-color="#68f6df"/><stop offset=".55" stop-color="#89a4ff"/><stop offset="1" stop-color="#d09bff"/></linearGradient>
 <radialGradient id="halo"><stop stop-color="#7450bd" stop-opacity=".25"/><stop offset="1" stop-color="#7450bd" stop-opacity="0"/></radialGradient>
 <pattern id="grid" width="40" height="40" patternUnits="userSpaceOnUse"><path d="M40 0H0V40" fill="none" stroke="#b6b9e8" stroke-opacity=".09"/></pattern>
</defs>
<rect width="1200" height="240" rx="18" fill="url(#bg)"/>
<rect x="1" y="1" width="1198" height="238" rx="17" fill="url(#grid)" stroke="#536b8b"/>
<rect x="0" y="26" width="4" height="188" fill="#68f6df"/><text x="38" y="48" font-size="15" fill="#68f6df" font-family="Menlo, Consolas, monospace">01</text><text x="90" y="48" font-size="15" fill="#c1cde0" font-family="Menlo, Consolas, monospace" letter-spacing="1.7">RESEARCH / MASTER&#x27;S THESIS</text><text x="37" y="124" font-size="59" fill="#f4f2ff" font-family="Arial, Helvetica, sans-serif" font-weight="700" letter-spacing="-1">EdgeDispatch</text><text x="39" y="175" font-size="23" fill="#d1dbee" font-family="Arial, Helvetica, sans-serif">Intelligence. With a sense of locality.</text><path d="M40 209H650" stroke="#68f6df" stroke-opacity=".24"/><circle cx="1144" cy="48" r="19" fill="#68f6df" fill-opacity=".09"/><path d="M1137 55L1151 41M1137 41H1151V55" stroke="#68f6df" stroke-width="1.5" fill="none"/><path d="M820 119H898L944 69H1041 M898 119L944 175H1041" fill="none" stroke="#68f6df" stroke-width="2"/><rect x="755" y="88" width="102" height="63" rx="10" fill="#2b5058" stroke="#68f6df"/><text x="778" y="126" font-size="17" fill="#68f6df" font-family="Menlo, Consolas, monospace">TASK</text><circle cx="898" cy="119" r="6" fill="#dcfa81"/><rect x="974" y="42" width="127" height="53" rx="9" fill="#2b5058" stroke="#6e9c99"/><rect x="974" y="149" width="127" height="53" rx="9" fill="#443e64" stroke="#8f7caa"/><text x="998" y="75" font-size="16" fill="#68f6df" font-family="Menlo, Consolas, monospace">LOCAL</text><text x="990" y="182" font-size="16" fill="#d09bff" font-family="Menlo, Consolas, monospace">REMOTE</text>
</svg>